<svg xmlns="http://www.w3.org/2000/svg" >
  <symbol id="logo" viewBox="0 0 216 48" fill="none">
    <path stroke="currentColor" fill="none" stroke-width="2.4" d="M1.2 1.2h45.6v45.6H1.2z" />
    <path
        d="M16.588 35.118V12.882h-2.78v22.236h2.78ZM10.102 15.661v-2.78h3.706v2.78h-3.706ZM37.898 12.882H20.294v2.78h7.412v19.456h2.78V15.661h7.412v-2.78ZM75.16 21h-2.114a4.394 4.394 0 0 0-1.782-2.761 4.777 4.777 0 0 0-1.457-.716 5.82 5.82 0 0 0-1.67-.239c-1.058 0-2.015.267-2.873.801-.852.534-1.531 1.321-2.037 2.361-.5 1.04-.75 2.315-.75 3.827 0 1.511.25 2.787.75 3.826.506 1.04 1.185 1.827 2.037 2.361.858.534 1.816.801 2.872.801.58 0 1.137-.08 1.67-.238a4.888 4.888 0 0 0 1.458-.708 4.477 4.477 0 0 0 1.781-2.77h2.114a7.042 7.042 0 0 1-.87 2.395 6.546 6.546 0 0 1-1.567 1.799 6.867 6.867 0 0 1-2.105 1.116c-.773.256-1.6.384-2.48.384-1.49 0-2.813-.364-3.972-1.091-1.16-.728-2.071-1.762-2.736-3.103-.665-1.34-.997-2.931-.997-4.772 0-1.841.332-3.432.997-4.773.665-1.34 1.577-2.375 2.736-3.102 1.159-.727 2.483-1.091 3.971-1.091.881 0 1.708.128 2.48.383a6.77 6.77 0 0 1 2.106 1.125 6.431 6.431 0 0 1 1.568 1.79c.42.699.71 1.497.87 2.395Zm5.628-3.58v-1.875h13.09v1.876H88.39V33h-2.113V17.42h-5.489ZM98.986 33H96.77l6.409-17.454h2.182L111.77 33h-2.216l-5.216-14.693h-.136L98.986 33Zm.818-6.818h8.932v1.875h-8.932v-1.875ZM117.657 33V15.546h2.113v7.772h9.307v-7.773h2.114V33h-2.114v-7.807h-9.307V33h-2.113Zm19.433 4.227v-6.102h1.125c.387-.352.75-.85 1.091-1.491.347-.648.639-1.512.878-2.591.244-1.086.406-2.463.486-4.134l.375-7.363h10.364v15.579h2.011v6.068h-2.011V33h-12.307v4.227h-2.012Zm3.648-6.102h8.659V17.421h-6.443l-.273 5.488a31.708 31.708 0 0 1-.358 3.46 17.723 17.723 0 0 1-.656 2.736c-.267.79-.577 1.463-.929 2.02ZM160.498 33h-2.216l6.409-17.454h2.182L173.282 33h-2.216l-5.216-14.693h-.136L160.498 33Zm.818-6.818h8.932v1.875h-8.932v-1.875ZM179.169 33V15.546h5.897c1.37 0 2.489.247 3.358.74.875.49 1.523 1.151 1.943 1.987.421.835.631 1.767.631 2.795 0 1.029-.21 1.963-.631 2.804-.414.841-1.056 1.512-1.926 2.012-.869.494-1.983.741-3.341.741h-4.227V24.75h4.159c.938 0 1.69-.162 2.259-.486.568-.324.98-.761 1.235-1.312.262-.557.393-1.185.393-1.884 0-.699-.131-1.324-.393-1.875-.255-.551-.67-.983-1.244-1.295-.574-.319-1.335-.477-2.284-.477h-3.716V33h-2.113Zm17.447-15.58v-1.875h13.091v1.876h-5.488V33h-2.114V17.42h-5.489Z"
        fill="currentColor"
    />
  </symbol>

  <symbol id="chevron" viewBox="0 0 21 21" fill="none">
    <path d="M14.5 8.5L10.5 12.5L6.5 8.5" stroke="currentColor" />
  </symbol>

  <symbol id="favorites" viewBox="0 0 19 22" fill="none">
    <path d="M3.07157 0.857147H15.9287C17.1122 0.857147 18.0716 1.53938 18.0716 2.38096V20.6667L9.50014 14.5714L0.928711 20.6667V2.38096C0.928711 1.53938 1.8881 0.857147 3.07157 0.857147Z" stroke="currentColor" stroke-width="1.5" stroke-linecap="round" stroke-linejoin="round"/>
  </symbol>

  <symbol id="cart" viewBox="0 0 32 32" fill="none">
    <path d="M7.61909 9.90477H26.6667L24.2506 18.3611C23.8768 19.6694 22.681 20.5714 21.3203 20.5714H11.1087C9.55584 20.5714 8.25126 19.4038 8.07977 17.8604L6.85719 6.85715H3.80957" stroke="currentColor" stroke-width="1.5" stroke-linecap="round" stroke-linejoin="round"/>
    <path d="M10.6664 25.9048C11.508 25.9048 12.1902 25.2225 12.1902 24.381C12.1902 23.5394 11.508 22.8571 10.6664 22.8571C9.82481 22.8571 9.14258 23.5394 9.14258 24.381C9.14258 25.2225 9.82481 25.9048 10.6664 25.9048Z" fill="currentColor"/>
    <path d="M22.8568 25.9048C23.6984 25.9048 24.3806 25.2225 24.3806 24.381C24.3806 23.5394 23.6984 22.8571 22.8568 22.8571C22.0152 22.8571 21.333 23.5394 21.333 24.381C21.333 25.2225 22.0152 25.9048 22.8568 25.9048Z" fill="currentColor"/>
  </symbol>

  <symbol id="search" viewBox="0 0 22 22" fill="none">
    <path d="M7.73777 14.7679C11.5512 14.7679 14.6425 11.6765 14.6425 7.86309C14.6425 4.0497 11.5512 0.958328 7.73777 0.958328C3.92437 0.958328 0.833008 4.0497 0.833008 7.86309C0.833008 11.6765 3.92437 14.7679 7.73777 14.7679Z" stroke="currentColor" stroke-width="1.5" stroke-linecap="round" stroke-linejoin="round"/>
    <path d="M20.2646 20.2917L12.5713 12.6964" stroke="currentColor" stroke-width="1.5" stroke-linecap="round" stroke-linejoin="round"/>
  </symbol>

  <symbol id="menu" viewBox="0 0 29 19" fill="none">
    <path d="M1.64258 0.928574H27.3569" stroke="black" stroke-width="1.5" stroke-linecap="round" stroke-linejoin="round"/>
    <path d="M1.63867 9.5H27.3465" stroke="black" stroke-width="1.5" stroke-linecap="round" stroke-linejoin="round"/>
    <path d="M1.64258 18.0714H27.3462" stroke="black" stroke-width="1.5" stroke-linecap="round" stroke-linejoin="round"/>
  </symbol>

  <symbol id="star" viewBox="0 0 18 17" fill="none">
    <path d="M8.59345 11.7381L4.50117 14.1666L6.13808 10.013L2.86426 6.88093H6.95654L8.59345 2.83331L10.2304 6.88093H14.3226L11.0488 10.119L12.6857 14.1666L8.59345 11.7381Z" fill="#FF4F04" fill-opacity="0.6"/>
  </symbol>

  <symbol id="info" fill="none" viewBox="0 0 24 24">
    <path fill="currentColor" d="M11 6h2.01v2H11V6ZM13 10v8h-2v-8h2Z"></path>
    <path fill="currentColor" fill-rule="evenodd" d="M1 12C1 5.925 5.925 1 12 1s11 4.925 11 11-4.925 11-11 11S1 18.075 1 12Zm11-9a9 9 0 1 0 0 18 9 9 0 0 0 0-18Z" clip-rule="evenodd"></path>
  </symbol>

  <symbol id="news" fill="currentColor" viewBox="0 0 16 16">
    <path d="M0 2.5A1.5 1.5 0 0 1 1.5 1h11A1.5 1.5 0 0 1 14 2.5v10.528c0 .3-.05.654-.238.972h.738a.5.5 0 0 0 .5-.5v-9a.5.5 0 0 1 1 0v9a1.5 1.5 0 0 1-1.5 1.5H1.497A1.497 1.497 0 0 1 0 13.5zM12 14c.37 0 .654-.211.853-.441.092-.106.147-.279.147-.531V2.5a.5.5 0 0 0-.5-.5h-11a.5.5 0 0 0-.5.5v11c0 .278.223.5.497.5z"/>
    <path d="M2 3h10v2H2zm0 3h4v3H2zm0 4h4v1H2zm0 2h4v1H2zm5-6h2v1H7zm3 0h2v1h-2zM7 8h2v1H7zm3 0h2v1h-2zm-3 2h2v1H7zm3 0h2v1h-2zm-3 2h2v1H7zm3 0h2v1h-2z"/>
  </symbol>

  <symbol id="board" fill="currentColor" viewBox="0 0 16 16">
    <path d="M4 1.5H3a2 2 0 0 0-2 2V14a2 2 0 0 0 2 2h10a2 2 0 0 0 2-2V3.5a2 2 0 0 0-2-2h-1v1h1a1 1 0 0 1 1 1V14a1 1 0 0 1-1 1H3a1 1 0 0 1-1-1V3.5a1 1 0 0 1 1-1h1z"/>
    <path d="M9.5 1a.5.5 0 0 1 .5.5v1a.5.5 0 0 1-.5.5h-3a.5.5 0 0 1-.5-.5v-1a.5.5 0 0 1 .5-.5zm-3-1A1.5 1.5 0 0 0 5 1.5v1A1.5 1.5 0 0 0 6.5 4h3A1.5 1.5 0 0 0 11 2.5v-1A1.5 1.5 0 0 0 9.5 0z"/>
  </symbol>

  <symbol id="doc" fill="currentColor" viewBox="0 0 16 16">
    <path d="M3.5 11a.5.5 0 0 0-.5.5v1a.5.5 0 0 0 .5.5h1a.5.5 0 0 0 .5-.5v-1a.5.5 0 0 0-.5-.5zm3.5.5a.5.5 0 0 1 .5-.5h1a.5.5 0 0 1 .5.5v1a.5.5 0 0 1-.5.5h-1a.5.5 0 0 1-.5-.5zm4.5-.5a.5.5 0 0 0-.5.5v1a.5.5 0 0 0 .5.5h1a.5.5 0 0 0 .5-.5v-1a.5.5 0 0 0-.5-.5z"/>
    <path d="M14 1a2 2 0 0 1 2 2v10a2 2 0 0 1-2 2H2a2 2 0 0 1-2-2V3a2 2 0 0 1 2-2zM2 14h12a1 1 0 0 0 1-1V5H1v8a1 1 0 0 0 1 1M2 2a1 1 0 0 0-1 1v1h14V3a1 1 0 0 0-1-1z"/>
  </symbol>

  <symbol id="clients" fill="currentColor" viewBox="0 0 16 16">
    <path d="M15 14s1 0 1-1-1-4-5-4-5 3-5 4 1 1 1 1zm-7.978-1L7 12.996c.001-.264.167-1.03.76-1.72C8.312 10.629 9.282 10 11 10c1.717 0 2.687.63 3.24 1.276.593.69.758 1.457.76 1.72l-.008.002-.014.002zM11 7a2 2 0 1 0 0-4 2 2 0 0 0 0 4m3-2a3 3 0 1 1-6 0 3 3 0 0 1 6 0M6.936 9.28a6 6 0 0 0-1.23-.247A7 7 0 0 0 5 9c-4 0-5 3-5 4q0 1 1 1h4.216A2.24 2.24 0 0 1 5 13c0-1.01.377-2.042 1.09-2.904.243-.294.526-.569.846-.816M4.92 10A5.5 5.5 0 0 0 4 13H1c0-.26.164-1.03.76-1.724.545-.636 1.492-1.256 3.16-1.275ZM1.5 5.5a3 3 0 1 1 6 0 3 3 0 0 1-6 0m3-2a2 2 0 1 0 0 4 2 2 0 0 0 0-4"/>
  </symbol>

  <symbol id="partner-card" fill="currentColor" viewBox="0 0 16 16">
    <path d="M5 8a2 2 0 1 0 0-4 2 2 0 0 0 0 4m4-2.5a.5.5 0 0 1 .5-.5h4a.5.5 0 0 1 0 1h-4a.5.5 0 0 1-.5-.5M9 8a.5.5 0 0 1 .5-.5h4a.5.5 0 0 1 0 1h-4A.5.5 0 0 1 9 8m1 2.5a.5.5 0 0 1 .5-.5h3a.5.5 0 0 1 0 1h-3a.5.5 0 0 1-.5-.5"/>
    <path d="M2 2a2 2 0 0 0-2 2v8a2 2 0 0 0 2 2h12a2 2 0 0 0 2-2V4a2 2 0 0 0-2-2zM1 4a1 1 0 0 1 1-1h12a1 1 0 0 1 1 1v8a1 1 0 0 1-1 1H8.96q.04-.245.04-.5C9 10.567 7.21 9 5 9c-2.086 0-3.8 1.398-3.984 3.181A1 1 0 0 1 1 12z"/>
  </symbol>

  <symbol id="questions" fill="currentColor" viewBox="0 0 16 16">
    <path d="M8 15A7 7 0 1 1 8 1a7 7 0 0 1 0 14m0 1A8 8 0 1 0 8 0a8 8 0 0 0 0 16"/>
    <path d="M5.255 5.786a.237.237 0 0 0 .241.247h.825c.138 0 .248-.113.266-.25.09-.656.54-1.134 1.342-1.134.686 0 1.314.343 1.314 1.168 0 .635-.374.927-.965 1.371-.673.489-1.206 1.06-1.168 1.987l.003.217a.25.25 0 0 0 .25.246h.811a.25.25 0 0 0 .25-.25v-.105c0-.718.273-.927 1.01-1.486.609-.463 1.244-.977 1.244-2.056 0-1.511-1.276-2.241-2.673-2.241-1.267 0-2.655.59-2.75 2.286m1.557 5.763c0 .533.425.927 1.01.927.609 0 1.028-.394 1.028-.927 0-.552-.42-.94-1.029-.94-.584 0-1.009.388-1.009.94"/>
  </symbol>

  <symbol id="certificates" fill="currentColor" viewBox="0 0 16 16">
    <path d="M9.669.864 8 0 6.331.864l-1.858.282-.842 1.68-1.337 1.32L2.6 6l-.306 1.854 1.337 1.32.842 1.68 1.858.282L8 12l1.669-.864 1.858-.282.842-1.68 1.337-1.32L13.4 6l.306-1.854-1.337-1.32-.842-1.68zm1.196 1.193.684 1.365 1.086 1.072L12.387 6l.248 1.506-1.086 1.072-.684 1.365-1.51.229L8 10.874l-1.355-.702-1.51-.229-.684-1.365-1.086-1.072L3.614 6l-.25-1.506 1.087-1.072.684-1.365 1.51-.229L8 1.126l1.356.702z"/>
    <path d="M4 11.794V16l4-1 4 1v-4.206l-2.018.306L8 13.126 6.018 12.1z"/>
  </symbol>

  <symbol id="vacancies" fill="currentColor" viewBox="0 0 16 16">
    <path d="M6 8a3 3 0 1 0 0-6 3 3 0 0 0 0 6m2-3a2 2 0 1 1-4 0 2 2 0 0 1 4 0m4 8c0 1-1 1-1 1H1s-1 0-1-1 1-4 6-4 6 3 6 4m-1-.004c-.001-.246-.154-.986-.832-1.664C9.516 10.68 8.289 10 6 10s-3.516.68-4.168 1.332c-.678.678-.83 1.418-.832 1.664z"/>
    <path fill-rule="evenodd" d="M13.5 5a.5.5 0 0 1 .5.5V7h1.5a.5.5 0 0 1 0 1H14v1.5a.5.5 0 0 1-1 0V8h-1.5a.5.5 0 0 1 0-1H13V5.5a.5.5 0 0 1 .5-.5"/>
  </symbol>

  <symbol id="plus" fill="var(--c-theme)" viewBox="0 0 10 10">
    <path d="M0 6V4H10V6H0Z" fill="var(--c-theme)" />
    <path d="M4 0V4V10H6V0H4Z" fill="var(--c-theme)" />
  </symbol>
</svg>








